<svg id="inbox-icon" width="24" height="24" fill="none" xmlns="http://www.w3.org/2000/svg"><path d="M11.954 16.956l-.07-.997.07.997zM4.24 4.31h14.897v-2H4.24v2zm15.138.242v14.896h2V4.552h-2zm-.241 15.138H4.24v2h14.897v-2zM4 19.448V4.552H2v14.896h2zm.241.242A.241.241 0 014 19.448H2a2.241 2.241 0 002.241 2.242v-2zm15.138-.242a.241.241 0 01-.241.242v2a2.241 2.241 0 002.241-2.242h-2zM19.138 4.31c.133 0 .241.108.241.242h2a2.241 2.241 0 00-2.241-2.242v2zm-14.897-2A2.241 2.241 0 002 4.552h2c0-.134.108-.242.241-.242v-2zm7.449 15.655c.112 0 .223-.003.333-.011l-.14-1.995a2.762 2.762 0 01-.193.007v2zm-1.111-.131c.357.086.73.131 1.11.131v-2c-.222 0-.437-.026-.641-.075l-.47 1.944zm.469-1.944c-1.124-.271-2.21-1.042-3.57-1.92-1.254-.81-2.774-1.729-4.478-1.729v2c1.038 0 2.092.57 3.393 1.41 1.194.77 2.643 1.81 4.186 2.183l.469-1.944zm.975 2.064c1.832-.128 3.55-1.222 4.968-2.08 1.548-.936 2.796-1.633 4.009-1.633v-2c-1.872 0-3.608 1.053-5.043 1.921-1.564.946-2.827 1.71-4.073 1.797l.14 1.995z" fill="currentColor"/></svg>