<svg id="settings-icon" width="24" height="24" fill="none" xmlns="http://www.w3.org/2000/svg"><path fill-rule="evenodd" clip-rule="evenodd" d="M15.704 12a4 4 0 11-8 0 4 4 0 018 0zm-2 0a2 2 0 11-4 0 2 2 0 014 0z" fill="currentColor"/><path fill-rule="evenodd" clip-rule="evenodd" d="M2.134 8.576l1.82-3.152a1 1 0 011.17-.453l1.836.585a7.971 7.971 0 011.535-.886l.412-1.884A1 1 0 019.884 2h3.64a1 1 0 01.977.786l.412 1.884a7.973 7.973 0 011.535.886l1.837-.585a1 1 0 011.17.453l1.82 3.152a1 1 0 01-.193 1.24l-1.425 1.298a7.981 7.981 0 010 1.772l1.425 1.299a1 1 0 01.193 1.239l-1.82 3.152a1 1 0 01-1.17.453l-1.837-.585a7.979 7.979 0 01-1.535.886l-.412 1.884a1 1 0 01-.976.786h-3.64a1 1 0 01-.978-.786l-.412-1.884a7.97 7.97 0 01-1.535-.886l-1.836.585a1 1 0 01-1.17-.453l-1.82-3.152a1 1 0 01.193-1.24l1.425-1.298a7.97 7.97 0 010-1.772L2.327 9.815a1 1 0 01-.193-1.239zM12.72 4l.457 2.092.933.41c.211.092.416.196.614.312l.003.002c.185.107.364.224.536.351l.821.604 2.04-.65 1.016 1.758-1.583 1.443.112 1.012c.025.221.037.442.037.663v.004c0 .222-.012.443-.037.665l-.112 1.012 1.583 1.443-1.015 1.758-2.04-.65-.822.604a5.975 5.975 0 01-.543.355l-.003.002a5.968 5.968 0 01-.607.309l-.933.409L12.72 20h-2.03l-.458-2.092-.934-.41a5.989 5.989 0 01-.572-.288l-.004-.002a5.975 5.975 0 01-.577-.375l-.82-.604-2.041.65-1.015-1.758 1.583-1.443-.113-1.012a5.97 5.97 0 01-.036-.664v-.004c0-.221.012-.443.036-.664l.113-1.012-1.583-1.443 1.015-1.758 2.04.65.821-.604c.184-.135.374-.259.57-.371l.004-.002a5.97 5.97 0 01.58-.293l.933-.409L10.689 4h2.03z" fill="currentColor"/></svg>